<svg xmlns="http://www.w3.org/2000/svg" viewBox="0 0 218.42 59.43"><defs><style>.cls-1{fill:#fff;}</style></defs><g id="Camada_2" data-name="Camada 2"><g id="Camada_1-2" data-name="Camada 1"><path class="cls-1" d="M43.66,48.31h3a6.48,6.48,0,0,1,3.4.81,5,5,0,0,1,2,2.1,6.22,6.22,0,0,1,.61,2.72,5.39,5.39,0,0,1-.74,2.82,5.16,5.16,0,0,1-2,1.88,5.58,5.58,0,0,1-2.71.67H43.66Zm3.26,9.57a4.78,4.78,0,0,0,2.17-.48,3.56,3.56,0,0,0,1.5-1.4,4.16,4.16,0,0,0,.54-2.17,4.26,4.26,0,0,0-.56-2.22,3.76,3.76,0,0,0-1.5-1.41,4.39,4.39,0,0,0-2-.48H45.14v8.16Z"/><path class="cls-1" d="M81.51,48.31v1.41H75.84v3.35h5.07v1.41H75.84v3.4h5.89v1.43H74.36v-11Z"/><path class="cls-1" d="M110.26,59.13a5.06,5.06,0,0,1-1.77.3,5.77,5.77,0,0,1-3-.75,5,5,0,0,1-2-2,5.7,5.7,0,0,1-.69-2.78,6,6,0,0,1,.7-2.93,5.08,5.08,0,0,1,1.94-2,5.37,5.37,0,0,1,2.8-.74,6.1,6.1,0,0,1,1.74.25,5.57,5.57,0,0,1,1.44.64l-.59,1.38a4.49,4.49,0,0,0-2.54-.85,3.69,3.69,0,0,0-2,.56,4.18,4.18,0,0,0-1.45,1.53,4.29,4.29,0,0,0-.54,2.12,4.63,4.63,0,0,0,.5,2.15,3.64,3.64,0,0,0,1.41,1.5,4.4,4.4,0,0,0,4.7-.3l.62,1.32A6.3,6.3,0,0,1,110.26,59.13Z"/><path class="cls-1" d="M133.4,51a5.75,5.75,0,0,1,2-2.06,5.49,5.49,0,0,1,5.61,0A5.81,5.81,0,0,1,143.11,51a5.54,5.54,0,0,1,0,5.62,5.6,5.6,0,0,1-2.06,2,5.44,5.44,0,0,1-2.81.76,5.5,5.5,0,0,1-2.81-.75,5.4,5.4,0,0,1-2.05-2,5.53,5.53,0,0,1-.75-2.84A5.43,5.43,0,0,1,133.4,51Zm1.31,4.9A4.11,4.11,0,0,0,138.28,58a4,4,0,0,0,3.54-2.08,4.25,4.25,0,0,0,.54-2.11,4.18,4.18,0,0,0-.55-2.11,4.08,4.08,0,0,0-1.49-1.54,4,4,0,0,0-2.07-.56,3.93,3.93,0,0,0-2.07.57,4.05,4.05,0,0,0-1.48,1.54,4.31,4.31,0,0,0-.54,2.12A4.07,4.07,0,0,0,134.71,55.91Z"/><path class="cls-1" d="M171.65,59.31l-2.59-4.07-.36,0h-1.63v4.05h-1.48v-11h2.94a4.94,4.94,0,0,1,2,.39,3.11,3.11,0,0,1,1.38,1.17,3.23,3.23,0,0,1,.5,1.84,4.1,4.1,0,0,1-.44,1.88,3,3,0,0,1-1.38,1.29l2.77,4.43Zm-1.27-6.1a2.22,2.22,0,0,0,.3-2.39A1.89,1.89,0,0,0,170,50a2.15,2.15,0,0,0-1.21-.31h-1.7v4.11h1.6A2.14,2.14,0,0,0,170.38,53.21Z"/><path class="cls-1" d="M199.27,4.72l0,0,0,0c8.64,7.33,13.2,17.94,16.28,31.45h2.82c-2.94-15.14-9.32-28-19.15-36l0,0,0,0c-9.84,8-16.2,20.85-19.14,36h2.82C186,22.66,190.62,12.05,199.27,4.72Z"/><path class="cls-1" d="M62.51,0A19.05,19.05,0,1,0,81.56,19.05,19.05,19.05,0,0,0,62.51,0Zm0,35A15.94,15.94,0,1,1,78.45,19.05,15.93,15.93,0,0,1,62.51,35Z"/><path class="cls-1" d="M124.68,2c-.08,2.17-.61,15.15-.85,18-.42,8.52-7.44,15.06-15.21,15.09h-.12c-7.77,0-14.79-6.57-15.21-15.09-.24-2.85-.77-15.83-.85-18h-3c.25,5.73.49,12.13.74,17.85.54,10.49,8.73,18.53,18.31,18.54h0c9.57,0,17.76-8,18.3-18.54.25-5.72.5-12.12.74-17.85Z"/><path class="cls-1" d="M173.28,22.69a19,19,0,0,0-18-3.08l.94,3A16,16,0,0,1,169.73,24a15.94,15.94,0,1,1-2-13.91l2.58-1.74a19.05,19.05,0,1,0,2.93,14.33Z"/><path class="cls-1" d="M19.15,33.33l0,0,0,0C10.46,26,5.9,15.43,2.82,1.93H0c2.94,15.12,9.32,28,19.15,35.93l0,0,0,0c9.84-8,16.2-20.81,19.14-35.93H35.53C32.45,15.43,27.8,26,19.15,33.33Z"/></g></g></svg>