<svg xmlns="http://www.w3.org/2000/svg" viewBox="0 0 45.06 45.06"><defs><style>.cls-1{fill:#fff}</style></defs><g id="Camada_2" data-name="Camada 2"><g id="Camada_1-2" data-name="Camada 1"><path class="cls-1" d="M37.22 7.85a20.77 20.77 0 106.08 14.68 20.71 20.71 0 00-6.08-14.68M22.53 0A22.53 22.53 0 116.6 6.6 22.44 22.44 0 0122.53 0"/><path class="cls-1" d="M29.81 22.53a7.29 7.29 0 10-7.28 7.28 7.28 7.28 0 007.28-7.28m-.13-8.27a1.17 1.17 0 101.17 1.17 1.17 1.17 0 00-1.17-1.17m-13.1-1.68h11.91a4 4 0 014 4v11.91a4 4 0 01-4 4H16.58a4 4 0 01-4-4V16.58a4 4 0 014-4m11.91-1.34H16.58a5.35 5.35 0 00-5.34 5.34v11.91a5.36 5.36 0 005.34 5.34h11.91a5.36 5.36 0 005.34-5.34V16.58a5.35 5.35 0 00-5.34-5.34M16.77 22.53a5.77 5.77 0 115.76 5.77 5.78 5.78 0 01-5.76-5.77"/></g></g></svg>