<svg xmlns="http://www.w3.org/2000/svg" viewBox="0 0 33.64 34.33"><defs><style>.cls-1{fill:#634e42}</style></defs><g id="Camada_2" data-name="Camada 2"><g id="Camada_1-2" data-name="Camada 1"><path class="cls-1" d="M3 1.6L1.39 4.24s-5.95 8.38 6.79 21.56l.06.06s0 .05.06.07c12.83 13.1 21 7 21 7l2.57-1.61a3.17 3.17 0 00.32-4.69l-3.06-3.14a3 3 0 00-4-.3l-3.26 2.15s-2.19 1.33-8.31-4.95-4.81-8.54-4.81-8.54l2.08-3.35a3.17 3.17 0 00-.28-4.07L7.51 1.27A3 3 0 003 1.6M25.37 16.22A.6.6 0 0125 16a.63.63 0 010-.87 4.51 4.51 0 000-6.23 4.22 4.22 0 00-6.07 0 .58.58 0 01-.84 0 .62.62 0 010-.86 5.36 5.36 0 017.74 0 5.72 5.72 0 010 8 .59.59 0 01-.41.18"/><path class="cls-1" d="M27.56 18.47a.59.59 0 01-.42-.18.62.62 0 010-.86 7.76 7.76 0 000-10.74 7.25 7.25 0 00-10.46 0 .59.59 0 01-.83 0 .63.63 0 010-.87 8.44 8.44 0 0112.15 0 9 9 0 010 12.47.59.59 0 01-.42.18"/><path class="cls-1" d="M29.79 20.77a.59.59 0 01-.42-.18.62.62 0 010-.86 11.06 11.06 0 000-15.34 10.36 10.36 0 00-14.92 0 .58.58 0 01-.84 0 .62.62 0 010-.86 11.53 11.53 0 0116.6 0 12.31 12.31 0 010 17.06.56.56 0 01-.42.18"/></g></g></svg>