<svg width="8" height="12" viewBox="0 0 8 12" fill="none" xmlns="http://www.w3.org/2000/svg">
<path d="M0.709577 9.88L4.58958 6L0.709577 2.12C0.616995 2.02742 0.543555 1.91751 0.49345 1.79654C0.443345 1.67558 0.417556 1.54593 0.417556 1.415C0.417556 1.28407 0.443345 1.15442 0.49345 1.03346C0.543555 0.912493 0.616995 0.802582 0.709577 0.71C0.802159 0.617418 0.912069 0.543978 1.03303 0.493873C1.154 0.443768 1.28365 0.417979 1.41458 0.417979C1.54551 0.417979 1.67516 0.443768 1.79612 0.493873C1.91708 0.543978 2.02699 0.617418 2.11958 0.71L6.70958 5.3C6.80228 5.39251 6.87583 5.5024 6.92601 5.62338C6.97619 5.74435 7.00202 5.87403 7.00202 6.005C7.00202 6.13597 6.97619 6.26565 6.92601 6.38662C6.87583 6.5076 6.80228 6.61749 6.70958 6.71L2.11958 11.3C1.72958 11.69 1.09958 11.69 0.709577 11.3C0.329577 10.91 0.319577 10.27 0.709577 9.88Z" fill="#4B3A30"/>
</svg>