<svg width="8" height="12" viewBox="0 0 8 12" fill="none" xmlns="http://www.w3.org/2000/svg">
<path d="M6.71 9.88L2.83 6L6.71 2.12C6.80258 2.02742 6.87602 1.91751 6.92613 1.79654C6.97623 1.67558 7.00202 1.54593 7.00202 1.415C7.00202 1.28407 6.97623 1.15442 6.92613 1.03346C6.87602 0.912493 6.80258 0.802582 6.71 0.71C6.61742 0.617418 6.50751 0.543978 6.38654 0.493873C6.26558 0.443768 6.13593 0.417979 6.005 0.417979C5.87407 0.417979 5.74442 0.443768 5.62346 0.493873C5.50249 0.543978 5.39258 0.617418 5.3 0.71L0.71 5.3C0.617296 5.39251 0.543749 5.5024 0.493567 5.62338C0.443386 5.74435 0.417556 5.87403 0.417556 6.005C0.417556 6.13597 0.443386 6.26565 0.493567 6.38662C0.543749 6.5076 0.617296 6.61749 0.71 6.71L5.3 11.3C5.69 11.69 6.32 11.69 6.71 11.3C7.09 10.91 7.1 10.27 6.71 9.88Z" fill="#4B3A30"/>
</svg>