<svg xmlns="http://www.w3.org/2000/svg" viewBox="0 0 34.37 34.33"><g data-name="Camada 2"><path d="M17.49 30.79a14.16 14.16 0 01-7.79-2.33L4.27 30.2 6 25a13.91 13.91 0 01-2.7-8.25 10.24 10.24 0 01.07-1.36 14.19 14.19 0 0128.24.26 10.2 10.2 0 010 1.1 14.15 14.15 0 01-14.12 14.04m7.73-10.69c-.43-.21-2.44-1.21-2.81-1.36s-.67-.21-.95.22a17.39 17.39 0 01-1.31 1.59c-.24.29-.48.31-.87.13a10.74 10.74 0 01-3.34-2.05 12.21 12.21 0 01-2.3-2.82c-.23-.44 0-.63.16-.87a5.05 5.05 0 00.64-.71.55.55 0 00.14-.19 3.72 3.72 0 00.27-.48.66.66 0 000-.71c-.08-.2-.91-2.25-1.27-3s-.69-.69-.91-.69h-.8a1.45 1.45 0 00-1.1.52A4.43 4.43 0 009.26 13a4.31 4.31 0 00.24 1.4 9.26 9.26 0 001.5 2.85c.21.28 2.85 4.54 7.06 6.18s4.23 1.08 5 1a4.13 4.13 0 002.79-2 3.38 3.38 0 00.15-1.88 2.05 2.05 0 00-.78-.45m9.13-3.8A16.86 16.86 0 00.67 16a4.35 4.35 0 000 .73 16.76 16.76 0 002.42 8.64l-3 9 9.35-3a17 17 0 008.14 2.07 16.79 16.79 0 0016.79-16.73v-.41" fill="#634e42" data-name="Camada 1"/></g></svg>